<svg width="100" height="44" viewBox="0 0 100 44" fill="none" 
  xmlns="http://www.w3.org/2000/svg">
  <g clip-path="url(#clip0)">
    <path fill-rule="evenodd" clip-rule="evenodd" d="M7.29514 26.0061C0.817845 21.9575 0.00827447 17.9089 0.00827447 14.4676C-0.194118 10.419 3.2468 0.5 18.0229 0.5C25.7146 0.5 31.2473 2.92915 33.2038 4.14372V0.904861H100V11.4312H88.6649V26.0061H74.4961V11.4312H47.3728V15.4798H62.3513V26.0061H7.29514ZM18.6302 11.0263C22.476 11.0263 26.5243 13.0506 28.7508 15.4798H33.2038V23.5769C31.787 21.3502 28.427 18.5567 23.0832 17.0992C21.712 16.6629 20.3409 16.3647 19.0997 16.0949C16.31 15.4883 14.1771 15.0246 14.1771 13.4555C14.1771 11.836 15.0677 11.0263 18.6302 11.0263Z" fill="#C4DAFF"/>
    <path d="M0 42.9224V32.5423H4.47995C4.98748 32.5423 5.45597 32.6495 5.88542 32.8639C6.31487 33.0686 6.68088 33.3415 6.98345 33.6826C7.29578 34.014 7.53978 34.399 7.71547 34.8376C7.89115 35.2665 7.97899 35.7002 7.97899 36.1388C7.97899 36.5969 7.89603 37.0452 7.73011 37.4838C7.56418 37.9127 7.32994 38.2977 7.02737 38.6388C6.73456 38.9702 6.37344 39.2382 5.94398 39.4429C5.52429 39.6378 5.06068 39.7353 4.55315 39.7353H2.85487V42.9224H0ZM2.85487 37.2499H4.36283C4.53851 37.2499 4.69955 37.1719 4.84596 37.016C5.00212 36.8503 5.0802 36.5579 5.0802 36.1388C5.0802 35.7099 4.99236 35.4175 4.81668 35.2616C4.64099 35.1056 4.46531 35.0277 4.28962 35.0277H2.85487V37.2499Z" fill="#C4DAFF"/>
    <path d="M14.1807 42.9224V32.5423H18.9534C19.461 32.5423 19.9295 32.6495 20.3589 32.8639C20.7884 33.0686 21.1544 33.3415 21.4569 33.6826C21.7693 34.014 22.0133 34.399 22.189 34.8376C22.3646 35.2665 22.4525 35.7002 22.4525 36.1388C22.4525 36.7431 22.3207 37.3084 22.0572 37.8347C21.7937 38.3513 21.4277 38.7752 20.9592 39.1066L23.1552 42.9224H19.9343L18.1043 39.7353H17.0356V42.9224H14.1807ZM17.0356 37.2499H18.8363C19.012 37.2499 19.173 37.1524 19.3195 36.9575C19.4756 36.7626 19.5537 36.4897 19.5537 36.1388C19.5537 35.7782 19.4659 35.5053 19.2902 35.3201C19.1145 35.1251 18.9388 35.0277 18.7631 35.0277H17.0356V37.2499Z" fill="#C4DAFF"/>
    <path d="M33.6754 43.0101C32.8848 43.0101 32.1674 42.8591 31.5232 42.5569C30.8791 42.2548 30.3276 41.86 29.8689 41.3727C29.4101 40.8756 29.0539 40.3103 28.8001 39.6768C28.5464 39.0433 28.4195 38.3902 28.4195 37.7177C28.4195 37.0355 28.5512 36.3776 28.8148 35.744C29.0783 35.1105 29.4443 34.555 29.9128 34.0774C30.391 33.59 30.9523 33.2051 31.5964 32.9224C32.2504 32.63 32.9629 32.4838 33.7339 32.4838C34.5245 32.4838 35.2419 32.6349 35.8861 32.937C36.5302 33.2392 37.0817 33.6388 37.5404 34.1359C37.9991 34.6329 38.3505 35.1982 38.5945 35.8318C38.8483 36.4653 38.9752 37.1134 38.9752 37.7762C38.9752 38.4585 38.8434 39.1164 38.5799 39.7499C38.3164 40.3737 37.9503 40.9292 37.4819 41.4166C37.0134 41.8941 36.4521 42.2791 35.7982 42.5715C35.154 42.8639 34.4464 43.0101 33.6754 43.0101ZM31.3183 37.747C31.3183 38.0978 31.3671 38.439 31.4647 38.7704C31.5623 39.092 31.7087 39.3795 31.9039 39.6329C32.0991 39.8863 32.3431 40.091 32.6359 40.247C32.9385 40.4029 33.2947 40.4809 33.7046 40.4809C34.1146 40.4809 34.4708 40.4029 34.7734 40.247C35.076 40.0813 35.32 39.8717 35.5054 39.6183C35.7006 39.3552 35.8421 39.0579 35.93 38.7265C36.0276 38.3951 36.0764 38.0589 36.0764 37.7177C36.0764 37.3669 36.0276 37.0306 35.93 36.709C35.8324 36.3776 35.6811 36.09 35.4761 35.8464C35.2809 35.593 35.032 35.3932 34.7295 35.247C34.4367 35.091 34.0902 35.0131 33.69 35.0131C33.2801 35.0131 32.9238 35.091 32.6213 35.247C32.3284 35.4029 32.0844 35.6125 31.8892 35.8756C31.694 36.129 31.5476 36.4214 31.45 36.7528C31.3622 37.0745 31.3183 37.4058 31.3183 37.747Z" fill="#C4DAFF"/>
    <path d="M45.2442 42.9224V32.5423H49.241C50.0999 32.5423 50.8564 32.6787 51.5103 32.9516C52.1642 33.2246 52.7108 33.5949 53.15 34.0628C53.5892 34.5306 53.9211 35.0813 54.1456 35.7148C54.3701 36.3386 54.4823 37.0062 54.4823 37.7177C54.4823 38.5072 54.3554 39.2236 54.1016 39.8669C53.8576 40.5004 53.5063 41.0462 53.0475 41.5043C52.5888 41.9526 52.0374 42.3035 51.3932 42.5569C50.749 42.8006 50.0316 42.9224 49.241 42.9224H45.2442ZM51.5835 37.7177C51.5835 37.3181 51.5298 36.9526 51.4225 36.6212C51.3151 36.2899 51.1589 36.0072 50.954 35.7733C50.7588 35.5394 50.5148 35.3591 50.2219 35.2323C49.9291 35.0959 49.6022 35.0277 49.241 35.0277H48.0991V40.437H49.241C49.6119 40.437 49.9438 40.3688 50.2366 40.2323C50.5294 40.0959 50.7734 39.9058 50.9686 39.6622C51.1736 39.4185 51.3249 39.131 51.4225 38.7996C51.5298 38.4682 51.5835 38.1076 51.5835 37.7177Z" fill="#C4DAFF"/>
    <path d="M65.3217 40.4809C65.6535 40.4809 65.9366 40.4078 66.1708 40.2616C66.405 40.1154 66.5954 39.9253 66.7418 39.6914C66.8882 39.4477 66.9955 39.17 67.0639 38.8581C67.1322 38.5462 67.1664 38.2197 67.1664 37.8785V32.5423H70.0212V37.8785C70.0212 38.5998 69.9285 39.2772 69.743 39.9107C69.5576 40.5345 69.2697 41.0754 68.8793 41.5335C68.4889 41.9916 67.996 42.3522 67.4006 42.6154C66.815 42.8785 66.122 43.0101 65.3217 43.0101C64.492 43.0101 63.7795 42.8737 63.1842 42.6008C62.5986 42.3181 62.1154 41.9429 61.7348 41.475C61.3541 41.0072 61.076 40.4663 60.9003 39.8522C60.7246 39.2284 60.6367 38.5706 60.6367 37.8785V32.5423H63.4916V37.8785C63.4916 38.2197 63.5258 38.5511 63.5941 38.8727C63.6624 39.1846 63.7698 39.4624 63.9162 39.706C64.0626 39.94 64.248 40.13 64.4725 40.2762C64.7068 40.4127 64.9898 40.4809 65.3217 40.4809Z" fill="#C4DAFF"/>
    <path d="M76.1514 37.6446C76.1514 37.0111 76.2685 36.3873 76.5028 35.7733C76.7468 35.1592 77.0982 34.6086 77.5569 34.1212C78.0156 33.6339 78.572 33.2392 79.2259 32.937C79.8798 32.6349 80.6265 32.4838 81.4659 32.4838C82.4712 32.4838 83.3398 32.6934 84.0719 33.1125C84.8136 33.5218 85.3651 34.0676 85.7262 34.7499L83.5448 36.2996C83.4472 36.0462 83.3154 35.8366 83.1495 35.6709C82.9933 35.5053 82.8177 35.3737 82.6225 35.2762C82.4273 35.1787 82.2223 35.1105 82.0076 35.0715C81.8026 35.0325 81.6025 35.0131 81.4073 35.0131C80.9974 35.0131 80.6411 35.0959 80.3386 35.2616C80.0458 35.4175 79.8018 35.6271 79.6065 35.8902C79.4211 36.1437 79.2796 36.4361 79.182 36.7674C79.0941 37.0891 79.0502 37.4107 79.0502 37.7323C79.0502 38.093 79.1039 38.439 79.2113 38.7704C79.3186 39.1017 79.4748 39.3941 79.6797 39.6476C79.8847 39.901 80.1336 40.1056 80.4264 40.2616C80.729 40.4078 81.0657 40.4809 81.4366 40.4809C81.6318 40.4809 81.8319 40.4614 82.0368 40.4224C82.2418 40.3737 82.437 40.3006 82.6225 40.2031C82.8177 40.0959 82.9885 39.9643 83.1349 39.8084C83.291 39.6427 83.413 39.4429 83.5009 39.209L85.8287 40.5978C85.6725 40.978 85.4334 41.3191 85.1113 41.6212C84.799 41.9234 84.4379 42.1768 84.0279 42.3815C83.6278 42.5861 83.1934 42.7421 82.7249 42.8493C82.2662 42.9565 81.8172 43.0101 81.378 43.0101C80.607 43.0101 79.8994 42.8591 79.2552 42.5569C78.6208 42.245 78.0693 41.8357 77.6008 41.3288C77.1421 40.822 76.7858 40.247 76.5321 39.6037C76.2783 38.9604 76.1514 38.3074 76.1514 37.6446Z" fill="#C4DAFF"/>
    <path d="M100 35.0277H97.0134V42.9224H94.1585V35.0277H91.1572V32.5423H100V35.0277Z" fill="#C4DAFF"/>
  </g>
  <defs>
    <clipPath id="clip0">
      <rect width="100" height="43" fill="white" transform="translate(0 0.5)"/>
    </clipPath>
  </defs>
</svg>
