<svg width="192" height="48" viewBox="0 0 192 48" fill="none" xmlns="http://www.w3.org/2000/svg">
<rect x="12" y="8" width="32" height="32" rx="6" fill="#B4B4BB"/>
<path d="M67.8796 24.76C67.8796 27.5067 67.1063 29.42 65.5596 30.5C64.1329 31.5 62.1729 32 59.6796 32H54.0196V31.62H55.3396V18.38H54.0196V18H60.1996C62.7596 18 64.6796 18.5267 65.9596 19.58C67.2396 20.62 67.8796 22.3467 67.8796 24.76ZM59.2396 31.62H59.9996C61.3463 31.62 62.3063 31.1467 62.8796 30.2C63.4663 29.24 63.7596 27.64 63.7596 25.4V24.24C63.7596 21.24 63.1863 19.4333 62.0396 18.82C61.4929 18.5267 60.7196 18.38 59.7196 18.38H59.2396V31.62ZM73.5996 27.3H74.1796V25.76C74.1796 24.4933 74.1063 23.6467 73.9596 23.22C73.8263 22.78 73.5596 22.56 73.1596 22.56C72.9196 22.56 72.6996 22.6267 72.4996 22.76C72.3129 22.88 72.2196 23.0533 72.2196 23.28C72.2196 23.4933 72.2596 23.7133 72.3396 23.94H72.8396C72.9463 24.22 72.9996 24.56 72.9996 24.96C72.9996 25.3467 72.8329 25.6867 72.4996 25.98C72.1663 26.26 71.7463 26.4 71.2396 26.4C70.0929 26.4 69.5196 25.8467 69.5196 24.74C69.5196 23.1 70.9129 22.28 73.6996 22.28C75.2863 22.28 76.3796 22.5533 76.9796 23.1C77.5929 23.6333 77.8996 24.62 77.8996 26.06V30.12C77.8996 30.8133 78.0929 31.16 78.4796 31.16C78.9329 31.16 79.1996 30.4733 79.2796 29.1L79.5796 29.12C79.5263 30.2933 79.3063 31.1 78.9196 31.54C78.5329 31.98 77.8996 32.2 77.0196 32.2C75.4196 32.2 74.4996 31.7067 74.2596 30.72C74.0863 31.2267 73.8263 31.6 73.4796 31.84C73.1329 32.08 72.6263 32.2 71.9596 32.2C69.9863 32.2 68.9996 31.3933 68.9996 29.78C68.9996 28.8333 69.3729 28.1867 70.1196 27.84C70.8796 27.48 72.0396 27.3 73.5996 27.3ZM72.7996 29.76C72.7996 30.4533 72.8329 30.9 72.8996 31.1C72.9796 31.3 73.1196 31.4 73.3196 31.4C73.5329 31.4 73.7263 31.2333 73.8996 30.9C74.0863 30.5533 74.1796 30.08 74.1796 29.48V27.62H74.0396C73.2129 27.62 72.7996 28.2267 72.7996 29.44V29.76ZM80.2362 32.2V28.62H80.4762C80.8228 29.78 81.2895 30.5933 81.8762 31.06C82.4628 31.5267 83.1962 31.76 84.0762 31.76C85.4362 31.76 86.1162 31.3267 86.1162 30.46C86.1162 30.0867 85.9495 29.8067 85.6162 29.62C85.0962 29.3267 84.4295 29.1 83.6162 28.94C82.7095 28.7 81.9495 28.38 81.3362 27.98C80.6028 27.5 80.2362 26.74 80.2362 25.7C80.2362 24.66 80.5562 23.8333 81.1962 23.22C81.8362 22.5933 82.6895 22.28 83.7562 22.28C84.4095 22.28 85.0828 22.4333 85.7762 22.74C86.0295 22.8467 86.2228 22.9 86.3562 22.9C86.4895 22.9 86.6028 22.8533 86.6962 22.76C86.7895 22.6667 86.9028 22.4933 87.0362 22.24H87.2562V25.3H87.0162C86.3362 23.5667 85.2828 22.7 83.8562 22.7C83.2295 22.7 82.7628 22.8133 82.4562 23.04C82.1495 23.2533 81.9962 23.5267 81.9962 23.86C81.9962 24.06 82.0428 24.22 82.1362 24.34C82.2295 24.4467 82.3028 24.5267 82.3562 24.58C82.4095 24.6333 82.4962 24.6933 82.6162 24.76C82.7362 24.8133 82.8362 24.86 82.9162 24.9C82.9962 24.9267 83.1162 24.9667 83.2762 25.02C83.4495 25.0733 83.5762 25.1067 83.6562 25.12C84.5628 25.3467 85.2162 25.5467 85.6162 25.72C86.0162 25.88 86.3962 26.08 86.7562 26.32C87.4895 26.8267 87.8562 27.6467 87.8562 28.78C87.8562 29.9 87.5228 30.7533 86.8562 31.34C86.1895 31.9133 85.2762 32.2 84.1162 32.2C83.2895 32.2 82.4895 32.0067 81.7162 31.62C81.5562 31.5133 81.4295 31.46 81.3362 31.46C81.0428 31.46 80.7562 31.7067 80.4762 32.2H80.2362ZM88.448 17H93.268V24.32C93.4814 23.7067 93.808 23.2133 94.248 22.84C94.688 22.4667 95.3547 22.28 96.248 22.28C98.3147 22.28 99.348 23.3933 99.348 25.62V31.64H100.468V32H94.808V31.64H95.628V25.14C95.628 24.34 95.5747 23.8267 95.468 23.6C95.3614 23.36 95.168 23.24 94.888 23.24C94.4614 23.24 94.0814 23.52 93.748 24.08C93.428 24.64 93.268 25.32 93.268 26.12V31.64H94.128V32H88.448V31.64H89.548V17.36H88.448V17ZM108.072 26.62C108.072 25.2467 108.006 24.3267 107.872 23.86C107.739 23.38 107.479 23.14 107.092 23.14C106.706 23.14 106.359 23.38 106.052 23.86C105.746 24.34 105.592 25 105.592 25.84V29.56C105.592 30.1333 105.706 30.62 105.932 31.02C106.172 31.42 106.506 31.62 106.932 31.62C107.372 31.62 107.672 31.3267 107.832 30.74C107.992 30.1533 108.072 29.1267 108.072 27.66V26.62ZM105.592 17V24C106.099 22.8533 106.966 22.28 108.192 22.28C110.686 22.28 111.932 23.94 111.932 27.26C111.932 28.9533 111.586 30.2 110.892 31C110.212 31.8 109.186 32.2 107.812 32.2C107.119 32.2 106.586 32.0933 106.212 31.88C105.852 31.6667 105.606 31.3133 105.472 30.82L105.332 32H100.772V31.64H101.872V17.36H100.772V17H105.592ZM118.99 28.06V26.36C118.99 25.0667 118.917 24.1267 118.77 23.54C118.637 22.94 118.317 22.64 117.81 22.64C117.517 22.64 117.277 22.7267 117.09 22.9C116.917 23.06 116.79 23.3333 116.71 23.72C116.59 24.32 116.53 25.2333 116.53 26.46V28.02C116.53 29.4733 116.57 30.3467 116.65 30.64C116.743 30.9333 116.837 31.1733 116.93 31.36C117.077 31.68 117.363 31.84 117.79 31.84C118.31 31.84 118.65 31.54 118.81 30.94C118.93 30.5133 118.99 29.5533 118.99 28.06ZM117.75 32.2C116.083 32.2 114.823 31.7733 113.97 30.92C113.117 30.0667 112.69 28.8467 112.69 27.26C112.69 25.66 113.143 24.4333 114.05 23.58C114.97 22.7133 116.257 22.28 117.91 22.28C119.563 22.28 120.797 22.68 121.61 23.48C122.423 24.2667 122.83 25.4733 122.83 27.1C122.83 30.5 121.137 32.2 117.75 32.2ZM130.069 23.04C129.576 23.04 129.143 23.36 128.769 24C128.396 24.64 128.209 25.4 128.209 26.28V31.64H129.629V32H123.389V31.64H124.489V22.84H123.389V22.48H128.209V24.4C128.383 23.72 128.716 23.2 129.209 22.84C129.703 22.4667 130.263 22.28 130.889 22.28C131.516 22.28 132.023 22.46 132.409 22.82C132.809 23.1667 133.009 23.6667 133.009 24.32C133.009 24.96 132.863 25.4533 132.569 25.8C132.276 26.1467 131.823 26.32 131.209 26.32C130.609 26.32 130.163 26.12 129.869 25.72C129.589 25.32 129.556 24.7667 129.769 24.06H130.489C130.823 23.38 130.683 23.04 130.069 23.04ZM137.352 27.86C137.352 29.26 137.425 30.1933 137.572 30.66C137.718 31.1133 137.985 31.34 138.372 31.34C138.772 31.34 139.112 31.1667 139.392 30.82C139.685 30.4733 139.832 29.96 139.832 29.28V24.92C139.832 24.3467 139.718 23.86 139.492 23.46C139.265 23.06 138.932 22.86 138.492 22.86C138.052 22.86 137.752 23.1533 137.592 23.74C137.432 24.3267 137.352 25.3533 137.352 26.82V27.86ZM140.092 32L139.872 30.6C139.418 31.6667 138.498 32.2 137.112 32.2C135.965 32.2 135.072 31.7867 134.432 30.96C133.805 30.1333 133.492 28.9 133.492 27.26C133.492 23.94 134.812 22.28 137.452 22.28C138.625 22.28 139.398 22.6067 139.772 23.26V17.36H138.552V17H143.552V31.64H144.532V32H140.092ZM149.85 27.3H150.43V25.76C150.43 24.4933 150.356 23.6467 150.21 23.22C150.076 22.78 149.81 22.56 149.41 22.56C149.17 22.56 148.95 22.6267 148.75 22.76C148.563 22.88 148.47 23.0533 148.47 23.28C148.47 23.4933 148.51 23.7133 148.59 23.94H149.09C149.196 24.22 149.25 24.56 149.25 24.96C149.25 25.3467 149.083 25.6867 148.75 25.98C148.416 26.26 147.996 26.4 147.49 26.4C146.343 26.4 145.77 25.8467 145.77 24.74C145.77 23.1 147.163 22.28 149.95 22.28C151.536 22.28 152.63 22.5533 153.23 23.1C153.843 23.6333 154.15 24.62 154.15 26.06V30.12C154.15 30.8133 154.343 31.16 154.73 31.16C155.183 31.16 155.45 30.4733 155.53 29.1L155.83 29.12C155.776 30.2933 155.556 31.1 155.17 31.54C154.783 31.98 154.15 32.2 153.27 32.2C151.67 32.2 150.75 31.7067 150.51 30.72C150.336 31.2267 150.076 31.6 149.73 31.84C149.383 32.08 148.876 32.2 148.21 32.2C146.236 32.2 145.25 31.3933 145.25 29.78C145.25 28.8333 145.623 28.1867 146.37 27.84C147.13 27.48 148.29 27.3 149.85 27.3ZM149.05 29.76C149.05 30.4533 149.083 30.9 149.15 31.1C149.23 31.3 149.37 31.4 149.57 31.4C149.783 31.4 149.976 31.2333 150.15 30.9C150.336 30.5533 150.43 30.08 150.43 29.48V27.62H150.29C149.463 27.62 149.05 28.2267 149.05 29.44V29.76Z" fill="#19191D"/>
<path d="M34.7312 24.76C34.7312 27.5067 33.9578 29.42 32.4112 30.5C30.9845 31.5 29.0245 32 26.5312 32H20.8712V31.62H22.1912V18.38H20.8712V18H27.0512C29.6112 18 31.5312 18.5267 32.8112 19.58C34.0912 20.62 34.7312 22.3467 34.7312 24.76ZM26.0912 31.62H26.8512C28.1978 31.62 29.1578 31.1467 29.7312 30.2C30.3178 29.24 30.6112 27.64 30.6112 25.4V24.24C30.6112 21.24 30.0378 19.4333 28.8912 18.82C28.3445 18.5267 27.5712 18.38 26.5712 18.38H26.0912V31.62Z" fill="white"/>
</svg>